<svg height="511pt" viewBox="1 -79 511.999 511" width="511pt" xmlns="http://www.w3.org/2000/svg"><path d="m397.242188 353.601562h97.101562c9.75 0 17.65625-7.902343 17.65625-17.652343v-317.792969c0-9.753906-7.90625-17.65625-17.65625-17.65625h-476.6875c-9.753906 0-17.65625 7.90625-17.65625 17.65625v317.792969c0 9.75 7.902344 17.652343 17.65625 17.652343zm0 0" fill="#c03a2b"/><g fill="#f3d55b"><path d="m85.679688 62.292969 15.5625 31.539062 34.808593 5.058594-25.183593 24.542969 5.941406 34.664062-31.128906-16.363281-31.132813 16.363281 5.949219-34.664062-25.1875-24.542969 34.808594-5.058594zm0 0"/><path d="m154.332031 32.15625 12.269531 4.15625 10.390626-7.75-.167969 12.960938 10.585937 7.484374-12.378906 3.847657-3.847656 12.378906-7.484375-10.585937-12.960938.167968 7.75-10.390625zm0 0"/><path d="m154.332031 188.113281 12.269531 4.15625 10.390626-7.75-.167969 12.957031 10.585937 7.488282-12.378906 3.847656-3.847656 12.378906-7.484375-10.585937-12.960938.167969 7.75-10.390626zm0 0"/><path d="m197.800781 82.179688 12.269531 4.160156 10.390626-7.75-.167969 12.957031 10.585937 7.488281-12.378906 3.847656-3.847656 12.375-7.488282-10.582031-12.957031.164063 7.75-10.386719zm0 0"/><path d="m197.800781 145.332031 12.269531 4.160157 10.390626-7.75-.167969 12.957031 10.585937 7.484375-12.378906 3.851562-3.847656 12.375-7.488282-10.582031-12.957031.167969 7.75-10.390625zm0 0"/></g></svg>