<svg id="Capa_1" enable-background="new 0 0 496.879 496.879" height="512" viewBox="0 0 496.879 496.879" width="512" xmlns="http://www.w3.org/2000/svg"><g><path d="m492.549 210.549v258.66c0 4.92-1.28 9.54-3.54 13.54-2.49 4.44-6.17 8.12-10.62 10.6-3.99 2.25-8.6 3.53-13.51 3.53h-432.88c-4.91 0-9.52-1.28-13.52-3.53-4.45-2.49-8.13-6.17-10.61-10.61-2.26-4-3.54-8.62-3.54-13.53v-258.66s.03-2.72 1.36-6.06h485.5c1.33 3.34 1.36 6.06 1.36 6.06z" fill="#0593fc"/><g><path d="m489.009 482.749c-2.49 4.44-6.17 8.12-10.62 10.6l-144.37-144.17c-2.93-2.93-2.93-7.68 0-10.61 2.92-2.93 7.67-2.93 10.6 0z" fill="#0181fa"/></g><g><path d="m162.849 349.179-144.37 144.17c-4.45-2.49-8.13-6.17-10.61-10.61l144.38-144.17c2.93-2.93 7.68-2.93 10.6 0 2.93 2.93 2.93 7.68 0 10.61z" fill="#0181fa"/></g><path d="m492.549 210.549v258.66c0 4.92-1.28 9.54-3.54 13.54-2.49 4.44-6.17 8.12-10.62 10.6-3.99 2.25-8.6 3.53-13.51 3.53h-25.1c15.29 0 27.67-12.39 27.67-27.67v-264.72h23.74c1.33 3.34 1.36 6.06 1.36 6.06z" fill="#0181fa"/><path d="m491.189 204.489-72.5 66.54h-340.5l-72.5-66.54c.16-.41.35-.82.55-1.25.85-1.76 2.09-3.62 3.87-5.3.05-.06.1-.11.16-.16l74.69-68.55 60.27-13.28 14.56-55.39 49.76-45.68c7.44-6.93 16.7-11.5 26.55-13.58 17.66-3.74 37.16.54 51.23 13.58l199.28 182.9c.06.06.12.11.18.17 1.77 1.68 3 3.53 3.85 5.29.2.43.39.84.55 1.25z" fill="#0268b4"/><path d="m78.188 271.027-25.099-23.036v-89.512l31.87-29.25z" fill="#015a9a"/><path d="m491.189 204.489-72.5 66.54h-25.1l63.39-58.18c2.82-2.59 4.22-6.1 4.22-9.61 0-3.52-1.4-7.04-4.22-9.62l-194.75-178.74c-7.56-6.94-16.62-11.46-26.13-13.58 17.66-3.74 37.16.54 51.23 13.58l199.28 182.9c.06.06.12.11.18.17 1.77 1.68 3 3.53 3.85 5.29.2.43.39.84.55 1.25z" fill="#015a9a"/><path d="m257.051 454.698h-17.224c-9.65 0-17.473-7.823-17.473-17.473v-56.351c0-9.65 7.823-17.473 17.473-17.473h17.224c9.65 0 17.473 7.823 17.473 17.473v56.351c.001 9.649-7.822 17.473-17.473 17.473z" fill="#f07281"/><path d="m257.051 363.4h-17.224c-1.356 0-2.67.17-3.938.462 7.751 1.788 13.536 8.717 13.536 17.011v56.351c0 8.294-5.785 15.223-13.536 17.011 1.267.292 2.581.462 3.938.462h17.224c9.65 0 17.473-7.823 17.473-17.473v-56.351c.001-9.65-7.822-17.473-17.473-17.473z" fill="#eb5569"/><path d="m418.689 70.929v200.1l-131.36 120.56c-21.8 20-55.98 20-77.78 0l-131.36-120.56v-126.4c0-3.22.74-6.36 2.14-9.19 1.12-2.32 2.69-4.43 4.63-6.21l55.61-51.04 19.22-17.63c1.75-1.59 3.74-2.85 5.88-3.75 2.55-1.08 5.31-1.65 8.13-1.65h229.11c8.72 0 15.78 7.06 15.78 15.77z" fill="#eaf6ff"/><path d="m402.914 55.156h-25.099c8.713 0 15.777 7.063 15.777 15.777v188.453c0 7.419-3.111 14.497-8.577 19.513l-122.783 112.692c-7.619 6.991-16.754 11.529-26.342 13.633 17.843 3.915 37.262-.624 51.441-13.633l131.36-120.564v-200.095c-.001-8.713-7.064-15.776-15.777-15.776z" fill="#c8effe"/><path d="m165.669 56.809v62.85c0 8.72-7.07 15.78-15.78 15.78h-69.56c1.12-2.32 2.69-4.43 4.63-6.21l55.61-51.04 19.22-17.63c1.75-1.59 3.74-2.85 5.88-3.75z" fill="#c8effe"/><path d="m165.669 56.809v62.85c0 8.72-7.07 15.78-15.78 15.78h-25.1c8.71 0 15.78-7.06 15.78-15.78v-41.47l19.22-17.63c1.75-1.59 3.74-2.85 5.88-3.75z" fill="#99e6fc"/><path d="m280.812 135.443h-64.745c-9.357 0-16.943-7.586-16.943-16.943 0-9.357 7.586-16.943 16.943-16.943h64.745c9.357 0 16.943 7.586 16.943 16.943 0 9.358-7.586 16.943-16.943 16.943z" fill="#99e6fc"/><path d="m280.812 101.557h-25.099c9.357 0 16.943 7.586 16.943 16.943s-7.586 16.943-16.943 16.943h25.099c9.357 0 16.943-7.586 16.943-16.943s-7.586-16.943-16.943-16.943z" fill="#62dbfb"/><g><path d="m360.117 185.75h-223.355c-4.142 0-7.5-3.358-7.5-7.5s3.358-7.5 7.5-7.5h223.354c4.142 0 7.5 3.358 7.5 7.5s-3.357 7.5-7.499 7.5z" fill="#99e6fc"/></g><g><path d="m360.117 228.25h-45.511c-4.142 0-7.5-3.358-7.5-7.5s3.358-7.5 7.5-7.5h45.511c4.142 0 7.5 3.358 7.5 7.5s-3.358 7.5-7.5 7.5z" fill="#99e6fc"/></g><g><path d="m280.052 228.25h-143.29c-4.142 0-7.5-3.358-7.5-7.5s3.358-7.5 7.5-7.5h143.29c4.142 0 7.5 3.358 7.5 7.5s-3.358 7.5-7.5 7.5z" fill="#99e6fc"/></g><g><path d="m360.117 270.75h-223.355c-4.142 0-7.5-3.358-7.5-7.5s3.358-7.5 7.5-7.5h223.354c4.142 0 7.5 3.358 7.5 7.5s-3.357 7.5-7.499 7.5z" fill="#99e6fc"/></g><g><path d="m299.692 313.25h-102.505c-4.142 0-7.5-3.358-7.5-7.5s3.358-7.5 7.5-7.5h102.505c4.142 0 7.5 3.358 7.5 7.5s-3.358 7.5-7.5 7.5z" fill="#99e6fc"/></g></g></svg>