<svg id="Capa_1" enable-background="new 0 0 512 512" height="512" viewBox="0 0 512 512" width="512" xmlns="http://www.w3.org/2000/svg"><g><path d="m231.226 297.29-162.797 117.21h427.055l16.516-9.855v-99.097z" fill="#5055a0"/><path d="m495.484 90.839h-427.055 12.799l149.998 123.871 280.774-8.258v-99.097c0-9.122-7.395-16.516-16.516-16.516z" fill="#e5646e"/><path d="m81.231 404.645v16.516h414.253c9.121 0 16.516-7.395 16.516-16.516z" fill="#3f3f8f"/><path d="m7.667 140.387 140.978 115.613-140.978 115.613z" fill="#5d5360"/><path d="m16.516 355.097v-201.864l-16.516-2.38v210.297s16.516-4.861 16.516-6.053z" fill="#4b3f4e"/><path d="m75.333 412.333 152.353-115.043 284.314-8.258v-66.064l-284.314-8.258-173.431-123.871-37.738.001-10.184 16.516v38.977l142.312 109.667-139.978 108.667 5.333 42.666z" fill="#95cc81"/><g fill="#7dbd80"><path d="m66.065 404.645c-26.173 0-47.552-20.307-49.37-46.017l-16.695 23.445v22.572c0 9.121 7.395 16.516 16.516 16.516h37.736l35.407-16.516z"/><path d="m0 107.356v22.568l16.516 23.309v-62.393c-9.121 0-16.516 7.394-16.516 16.516z"/></g><path d="m230.508 206.452-149.28-115.613h-26.973l168.374 130.403c1.444 1.121 3.226 1.726 5.056 1.726h284.315v-16.516z" fill="#f2f2f6"/><path d="m227.685 289.032c-1.831 0-3.613.605-5.056 1.726l-147.051 113.887 3.756 8.022 23.223-8.021 127.952-99.097h281.491v-16.516h-284.315z" fill="#f2f2f6"/><path d="m16.516 142.77-7.845 3.84 7.845 17.089 118.678 92.301-118.678 92.304-7.83 16.009 9.557 3.571 135.475-105.368c2.008-1.565 3.185-3.968 3.185-6.516s-1.177-4.952-3.185-6.516z" fill="#ffe07d"/><path d="m75.578 404.645-21.326 16.516h26.979l21.325-16.516z" fill="#e1e1e6"/><g fill="#ffd064"><path d="m16.516 355.097v-6.793l-16.516 12.846v20.923l18.243-14.189c-1.09-4.086-1.727-8.358-1.727-12.787z"/><path d="m16.516 142.77-16.516-12.846v20.929l16.516 12.846z"/></g></g></svg>